<?xml version="1.0" standalone="no"?>
<!DOCTYPE svg PUBLIC "-//W3C//DTD SVG 20010904//EN"
 "http://www.w3.org/TR/2001/REC-SVG-20010904/DTD/svg10.dtd">
<svg version="1.0" xmlns="http://www.w3.org/2000/svg"
 width="300.000000pt" height="300.000000pt" viewBox="0 0 300.000000 300.000000"
 preserveAspectRatio="xMidYMid meet">

<g transform="translate(0.000000,300.000000) scale(0.100000,-0.100000)"
fill="#000000" stroke="none">
<path d="M802 2821 c-29 -10 -70 -32 -90 -48 -46 -37 -98 -134 -107 -202 -7
-49 -8 -51 -39 -51 -94 0 -209 -82 -234 -166 -6 -23 -12 -89 -12 -147 l0 -105
-29 -7 c-36 -8 -69 -42 -81 -86 -11 -38 -14 -249 -4 -298 4 -17 18 -42 32 -56
25 -25 25 -25 211 -25 l186 0 23 -35 c12 -19 22 -37 22 -39 0 -3 -102 -6 -226
-8 l-226 -3 -24 -28 c-23 -28 -24 -32 -24 -213 0 -114 4 -193 11 -206 21 -39
67 -48 254 -48 l175 0 0 -34 0 -33 -102 -5 c-115 -5 -149 -18 -193 -70 -37
-44 -55 -89 -55 -139 0 -139 106 -243 260 -256 l69 -6 6 -41 c25 -149 151
-245 283 -215 41 9 46 8 78 -21 19 -16 47 -33 62 -37 35 -10 869 -10 904 0 15
4 43 21 62 37 31 28 37 29 80 21 140 -26 254 57 287 207 l10 49 73 6 c117 9
194 51 242 133 21 36 24 47 14 59 -22 26 -53 16 -85 -27 -50 -69 -76 -82 -166
-87 l-79 -3 0 95 0 96 195 3 c265 4 241 -29 238 326 l-2 277 -26 23 c-21 18
-38 22 -90 22 -55 0 -65 3 -70 20 -4 12 -24 32 -45 46 -70 46 -172 29 -215
-36 -30 -46 -49 -35 -58 35 -8 53 -6 65 14 102 l23 42 33 -30 c46 -40 68 -44
228 -44 157 0 189 10 232 75 20 28 23 46 23 127 0 106 -10 133 -64 181 -28 25
-47 32 -102 37 -99 11 -243 1 -282 -19 -25 -13 -33 -14 -36 -4 -3 7 -11 35
-20 62 -9 27 -16 53 -16 58 0 4 53 8 118 8 113 0 120 1 164 29 52 33 98 113
98 169 0 138 -106 232 -261 232 l-76 0 -7 48 c-36 270 -360 365 -515 151 -17
-22 -31 -45 -33 -51 -5 -15 -144 19 -179 43 -30 21 -119 56 -193 75 -67 18
-96 2 -96 -54 l0 -37 -72 -13 c-40 -7 -84 -15 -99 -18 -22 -5 -29 1 -56 45
-39 62 -99 106 -164 120 -68 15 -95 13 -157 -8z m78 -61 c0 -6 -11 -16 -25
-22 -16 -7 -25 -19 -25 -33 0 -44 -60 -61 -84 -23 -8 13 -6 22 9 38 34 38 125
66 125 40z m660 -81 c36 -17 77 -42 93 -57 19 -18 30 -23 38 -15 13 13 71 2
149 -29 204 -80 348 -257 446 -548 25 -73 29 -100 29 -195 0 -106 -1 -112 -34
-173 -42 -76 -143 -175 -227 -219 -33 -18 -102 -48 -152 -67 -50 -19 -105 -42
-122 -51 l-31 -16 -44 49 c-62 69 -127 96 -220 90 -86 -6 -141 -32 -190 -91
l-36 -44 -147 60 c-81 33 -171 75 -201 94 -78 50 -156 135 -193 211 -29 59
-32 74 -32 151 2 195 114 451 263 601 85 86 140 121 239 155 100 34 169 40
226 21 72 -25 79 -22 51 20 -14 20 -25 43 -25 50 0 7 -3 20 -7 30 -5 15 -2 16
28 10 19 -3 63 -20 99 -37z m-912 -273 c13 -24 40 -60 61 -80 l38 -37 -41 -94
-41 -94 -127 -1 -128 0 0 103 c0 78 5 112 19 143 28 61 92 101 166 103 26 1
33 -5 53 -43z m1918 23 c76 -36 103 -114 69 -195 -23 -56 -79 -75 -211 -72
l-106 3 -26 63 -26 63 30 24 c16 13 43 48 58 79 l28 56 71 0 c51 0 83 -6 113
-21z m-1929 -423 c-17 -45 -29 -147 -25 -221 l4 -85 -138 0 c-77 0 -148 5
-159 10 -17 10 -19 23 -19 155 0 105 3 145 13 148 6 3 83 6 171 6 132 1 157
-1 153 -13z m2128 -121 c14 -13 25 -31 25 -40 0 -13 -6 -12 -31 9 -32 27 -49
33 -49 16 0 -6 11 -15 24 -20 32 -12 39 -25 26 -50 -13 -25 -35 -26 -52 -2 -7
9 -25 25 -40 35 -17 11 -25 23 -22 32 7 17 -9 19 -111 16 -52 -2 -64 -6 -92
-33 -26 -26 -33 -28 -33 -14 0 10 13 31 29 47 l29 29 137 0 c131 0 137 -1 160
-25z m-108 -62 c30 -25 32 -32 27 -70 -7 -48 -12 -50 -106 -45 l-68 4 0 48 c0
45 3 50 41 79 46 33 51 32 106 -16z m-1974 -368 c-1 -11 -7 -72 -13 -135 -6
-63 -13 -132 -16 -153 l-6 -37 -186 2 -187 3 -3 164 c-2 125 1 166 10 173 7 4
101 7 208 5 188 -2 195 -3 193 -22z m1866 -22 c25 -21 42 -125 22 -137 -15 -9
-14 -59 1 -74 37 -37 113 12 89 57 -6 11 -11 33 -11 50 0 24 5 30 29 36 17 3
39 1 51 -5 20 -11 20 -17 18 -252 l-3 -241 -25 -5 c-14 -2 -96 -6 -182 -9
-125 -3 -158 -1 -158 9 0 7 -3 30 -6 51 l-7 37 41 0 c22 0 44 5 47 10 12 20
-17 40 -56 40 -30 0 -39 4 -39 18 0 13 9 17 42 17 38 0 43 3 46 24 3 22 1 23
-41 20 -43 -4 -46 -2 -49 23 -4 24 -2 25 21 16 35 -13 71 -2 71 22 0 33 -71
38 -92 6 -4 -6 -8 6 -8 27 0 35 2 37 32 37 55 0 88 51 53 80 -17 14 -20 64 -4
107 17 50 78 68 118 36z m-962 -84 c24 -12 54 -37 67 -56 l24 -35 -24 -51
c-13 -29 -24 -58 -24 -65 0 -10 -29 -12 -126 -10 l-126 3 -13 35 c-7 19 -19
49 -25 66 -12 27 -11 34 10 62 51 69 155 91 237 51z m760 -41 c-2 -13 -4 -5
-4 17 -1 22 1 32 4 23 2 -10 2 -28 0 -40z m-1460 -348 c32 -12 70 -24 85 -27
34 -7 35 -13 12 -212 l-17 -143 -37 5 c-89 12 -220 107 -236 171 -3 14 1 79
10 144 9 65 16 133 16 151 l0 33 55 -50 c34 -31 77 -59 112 -72z m1408 -38
c10 -84 14 -163 11 -176 -14 -58 -135 -142 -235 -165 -38 -8 -41 -7 -42 13 0
11 -8 90 -18 175 -12 105 -14 154 -7 156 6 2 43 13 82 24 72 21 138 61 171
104 10 14 19 24 20 23 1 -1 9 -70 18 -154z m-697 48 c44 -32 92 -112 92 -154
0 -21 5 -25 36 -28 24 -2 42 -10 51 -25 14 -20 13 -24 -10 -47 -24 -24 -26
-36 -36 -173 -16 -204 -3 -193 -232 -193 -233 0 -218 -12 -235 188 -11 128
-16 154 -34 172 -11 11 -20 26 -20 34 0 23 29 46 59 46 24 0 28 6 39 46 28
104 98 164 193 164 46 0 63 -5 97 -30z m-976 -192 c-1 -68 -5 -138 -8 -155 -5
-32 -6 -33 -55 -33 -62 0 -105 18 -145 61 -64 69 -65 162 -2 221 28 26 35 28
122 28 l91 0 -3 -122z"/>
<path d="M1042 2164 c-135 -67 -236 -307 -170 -403 77 -113 256 -99 372 30 98
110 112 246 33 336 -60 68 -145 82 -235 37z m167 -161 c34 -42 7 -93 -48 -93
-56 0 -84 73 -39 104 33 23 64 19 87 -11z"/>
<path d="M1738 2170 c-114 -61 -137 -212 -51 -338 113 -166 311 -199 407 -69
68 92 -41 339 -178 403 -62 29 -128 30 -178 4z m107 -160 c20 -23 23 -63 5
-85 -17 -20 -69 -19 -92 2 -38 35 -11 103 42 103 15 0 35 -9 45 -20z"/>
<path d="M1400 1812 c-29 -23 -20 -56 21 -77 36 -19 39 -57 7 -79 -32 -23 -46
-20 -79 15 -30 33 -62 36 -67 6 -8 -39 66 -107 116 -107 13 0 37 7 54 16 28
15 33 14 63 -2 43 -23 99 -12 137 27 56 55 17 105 -43 55 -38 -32 -44 -32 -74
-1 -34 33 -31 49 10 74 44 26 49 66 9 81 -43 17 -129 12 -154 -8z"/>
<path d="M2530 1761 c0 -21 2 -23 10 -11 8 12 11 13 19 1 6 -9 11 -10 15 -3 4
6 13 9 20 6 7 -3 16 2 19 10 4 10 -2 16 -21 20 -50 9 -62 4 -62 -23z"/>
<path d="M347 1423 c-14 -4 -17 -13 -15 -41 2 -30 7 -38 26 -40 13 -2 32 4 42
13 15 14 16 21 7 46 -11 28 -22 32 -60 22z"/>
<path d="M550 1411 c0 -11 -5 -23 -11 -26 -16 -10 20 -45 46 -45 44 0 63 59
26 80 -32 17 -61 12 -61 -9z"/>
<path d="M336 1244 c-9 -8 -16 -19 -16 -23 0 -19 28 -42 54 -44 24 -2 31 3 36
23 4 14 3 33 -2 43 -11 21 -51 22 -72 1z"/>
<path d="M543 1240 c-8 -12 -9 -21 -3 -25 6 -3 10 -15 10 -26 0 -21 8 -23 43
-10 30 12 44 46 27 66 -18 22 -63 19 -77 -5z"/>
<path d="M2440 1410 c-33 -33 -24 -40 45 -40 62 0 65 1 55 20 -22 42 -69 51
-100 20z"/>
<path d="M2553 1163 c-23 -9 -14 -42 13 -49 48 -12 102 33 58 50 -18 7 -53 7
-71 -1z"/>
<path d="M2544 1065 c-9 -23 5 -35 39 -35 41 0 62 14 54 34 -8 21 -85 22 -93
1z"/>
<path d="M2544 985 c-10 -25 9 -37 52 -33 31 2 39 7 39 23 0 16 -8 21 -43 23
-32 2 -44 -1 -48 -13z"/>
<path d="M1431 917 c-31 -16 -58 -54 -66 -94 l-7 -33 116 0 c110 0 116 1 116
20 0 30 -26 75 -56 99 -30 24 -67 27 -103 8z"/>
<path d="M1330 630 l0 -50 50 0 50 0 0 50 0 50 -50 0 -50 0 0 -50z"/>
<path d="M1520 630 l0 -50 50 0 50 0 0 50 0 50 -50 0 -50 0 0 -50z"/>
<path d="M1340 470 c0 -31 1 -32 63 -34 24 -2 27 2 27 31 0 32 -1 33 -45 33
-43 0 -45 -1 -45 -30z"/>
<path d="M1520 466 c0 -27 4 -34 18 -31 9 2 29 4 45 4 23 1 27 5 27 31 0 29
-2 30 -45 30 -45 0 -45 0 -45 -34z"/>
<path d="M440 810 c-43 -43 -14 -120 46 -120 42 0 43 8 2 41 -35 29 -34 59 3
59 14 0 24 -10 32 -30 7 -18 19 -30 29 -30 25 0 23 40 -3 74 -26 33 -79 36
-109 6z"/>
</g>
</svg>
