<?xml version="1.0" standalone="no"?>
<!DOCTYPE svg PUBLIC "-//W3C//DTD SVG 20010904//EN"
 "http://www.w3.org/TR/2001/REC-SVG-20010904/DTD/svg10.dtd">
<svg version="1.0" xmlns="http://www.w3.org/2000/svg"
 width="36.000000pt" height="36.000000pt" viewBox="0 0 36.000000 36.000000"
 preserveAspectRatio="xMidYMid meet">

<g transform="translate(0.000000,36.000000) scale(0.100000,-0.100000)"
fill="#000000" stroke="none">
<path d="M67 311 c-15 -16 -27 -35 -27 -43 0 -8 -6 -20 -12 -26 -10 -10 -10
-17 0 -32 7 -12 8 -21 2 -25 -6 -3 -10 -17 -10 -31 0 -19 5 -24 28 -25 15 -1
20 -3 10 -6 -9 -2 -19 -12 -23 -21 -8 -22 48 -69 93 -78 51 -10 134 1 147 20
7 9 17 16 22 16 17 0 43 47 43 78 0 22 -6 32 -22 37 l-23 8 23 4 c35 7 26 46
-13 54 -23 5 -25 7 -7 8 17 1 22 7 22 26 0 15 -6 25 -15 25 -8 0 -19 9 -25 20
-11 21 -44 27 -55 10 -4 -6 -16 -8 -28 -6 -12 3 -8 -1 10 -9 56 -26 84 -89 55
-124 -14 -18 -29 -23 -76 -25 -64 -3 -106 19 -106 55 0 38 29 79 60 86 17 3
30 9 30 13 0 5 -8 6 -19 3 -10 -3 -22 0 -25 6 -12 18 -30 13 -59 -18z m13 -41
c0 -11 -7 -20 -15 -20 -8 0 -15 9 -15 20 0 11 7 20 15 20 8 0 15 -9 15 -20z
m230 5 c0 -8 -6 -15 -14 -15 -17 0 -28 14 -19 24 12 12 33 6 33 -9z m-240 -50
c0 -19 -26 -19 -34 0 -4 10 1 15 14 15 11 0 20 -7 20 -15z m258 -7 c-6 -18
-25 -20 -31 -3 -5 10 0 15 14 15 12 0 19 -5 17 -12z m-251 -53 c0 -8 -3 -15
-6 -16 -3 0 -14 -2 -23 -4 -12 -2 -18 3 -18 16 0 13 7 19 23 19 14 0 24 -6 24
-15z m123 -15 c0 -5 -9 -10 -20 -10 -11 0 -20 5 -20 10 0 6 9 10 20 10 11 0
20 -4 20 -10z m110 -21 c0 -10 -4 -19 -10 -19 -5 0 -10 12 -10 26 0 14 4 23
10 19 6 -3 10 -15 10 -26z m17 -6 c-3 -10 -5 -4 -5 12 0 17 2 24 5 18 2 -7 2
-21 0 -30z m-218 -12 c18 -12 6 -42 -14 -35 -8 3 -15 15 -15 25 0 21 8 23 29
10z m89 -3 c7 -7 12 -25 12 -40 0 -24 -4 -28 -29 -28 -23 0 -30 6 -35 26 -11
42 24 70 52 42z m70 -10 c-4 -27 -28 -36 -28 -10 0 20 8 32 22 32 5 0 8 -10 6
-22z m-207 5 c-11 -4 -11 -7 0 -14 7 -4 11 -10 8 -13 -2 -3 -11 -1 -18 3 -15
10 -6 31 12 30 8 0 7 -3 -2 -6z m249 -17 c0 -3 -4 -8 -10 -11 -5 -3 -10 -1
-10 4 0 6 5 11 10 11 6 0 10 -2 10 -4z"/>
<path d="M110 240 c-9 -16 -9 -25 -1 -33 16 -16 46 4 46 29 0 27 -31 29 -45 4z"/>
<path d="M200 242 c0 -26 27 -49 41 -35 17 17 6 48 -19 51 -16 3 -22 -2 -22
-16z"/>
<path d="M166 205 c-4 -11 1 -15 17 -14 12 0 16 3 9 6 -6 2 -10 9 -6 14 3 5 1
9 -4 9 -6 0 -12 -7 -16 -15z"/>
</g>
</svg>
